<?xml version="1.0" encoding="UTF-8"?>
<svg id="Layer_1" data-name="Layer 1" xmlns="http://www.w3.org/2000/svg" viewBox="0 0 34.79 33.7">
  <defs>
    <style>
      .cls-1 {
        fill: #231f20;
      }
    </style>
  </defs>
  <path class="cls-1" d="m34.3,32.36l-6.96-19.15h-2.69v2h1.29l.98,2.7c-.16.42-.48.93-1.11,1.44-1.13.92-3.34,1.85-7.47,2.15v1c4.29-.3,6.72-1.26,8.1-2.37.4-.32.7-.65.93-.98l3.71,10.2-12.74-5.91v1.1l3.35,1.56-3.57,5.62H7.18c.39-1.06,1.12-2.72,2.31-4.34.58-.78,1.26-1.55,2.05-2.23l-1-.45c-.88.82-1.61,1.71-2.21,2.6-1.18,1.74-1.87,3.44-2.21,4.42h-3.26l4.47-12.29,2.82,1.31v-1.1l-2.47-1.15,1.19-3.26h3.79l2.15-.97-2.29-1.03h-5.05L0,33.7h34.79l-.49-1.34Zm-15-.66l3.3-5.19,8.96,4.16.38,1.03h-12.63Z"/>
  <polygon class="cls-1" points="23.33 0 11.92 5.14 18.06 7.9 23.33 5.53 23.33 0"/>
  <circle class="cls-1" cx="25.26" cy="23.62" r="1.11"/>
  <circle class="cls-1" cx="16.28" cy="28.53" r="1.11"/>
  <circle class="cls-1" cx="23.71" cy="29.64" r="1.11"/>
  <circle class="cls-1" cx="8.11" cy="23.62" r="1.11"/>
  <circle class="cls-1" cx="12.19" cy="28.53" r="1.11"/>
  <polygon class="cls-1" points="11.46 5.75 11.46 11.28 23.33 16.62 23.33 11.09 11.46 5.75"/>
  <polygon class="cls-1" points="16.83 14.52 11.62 16.87 17.77 19.63 22.98 17.29 16.83 14.52"/>
  <polygon class="cls-1" points="17.02 20.12 11.46 17.61 11.46 23.14 17.02 25.65 17.02 20.12"/>
</svg>